<svg xmlns="http://www.w3.org/2000/svg" width="16" height="16" viewBox="0 0 16 16" shape-rendering="crispEdges">
<rect x="11" y="1" width="1" height="1" fill="#96211b"/>
<rect x="12" y="1" width="1" height="1" fill="#96211b"/>
<rect x="10" y="2" width="1" height="1" fill="#ad332e"/>
<rect x="11" y="2" width="1" height="1" fill="#e2625a"/>
<rect x="12" y="2" width="1" height="1" fill="#bc2922"/>
<rect x="13" y="2" width="1" height="1" fill="#96211b"/>
<rect x="10" y="3" width="1" height="1" fill="#ad332e"/>
<rect x="11" y="3" width="1" height="1" fill="#e2625a"/>
<rect x="12" y="3" width="1" height="1" fill="#d12e26"/>
<rect x="13" y="3" width="1" height="1" fill="#96211b"/>
<rect x="9" y="4" width="1" height="1" fill="#ad332e"/>
<rect x="10" y="4" width="1" height="1" fill="#e2625a"/>
<rect x="11" y="4" width="1" height="1" fill="#e27269"/>
<rect x="12" y="4" width="1" height="1" fill="#d12e26"/>
<rect x="13" y="4" width="1" height="1" fill="#96211b"/>
<rect x="9" y="5" width="1" height="1" fill="#ad332e"/>
<rect x="10" y="5" width="1" height="1" fill="#e27269"/>
<rect x="11" y="5" width="1" height="1" fill="#e88a82"/>
<rect x="12" y="5" width="1" height="1" fill="#bc2922"/>
<rect x="13" y="5" width="1" height="1" fill="#470a06"/>
<rect x="8" y="6" width="1" height="1" fill="#ad332e"/>
<rect x="9" y="6" width="1" height="1" fill="#e88a82"/>
<rect x="10" y="6" width="1" height="1" fill="#dd3830"/>
<rect x="11" y="6" width="1" height="1" fill="#e88a82"/>
<rect x="12" y="6" width="1" height="1" fill="#bc2922"/>
<rect x="13" y="6" width="1" height="1" fill="#470a06"/>
<rect x="7" y="7" width="1" height="1" fill="#ad332e"/>
<rect x="8" y="7" width="1" height="1" fill="#e88a82"/>
<rect x="9" y="7" width="1" height="1" fill="#dd3830"/>
<rect x="10" y="7" width="1" height="1" fill="#d12e26"/>
<rect x="11" y="7" width="1" height="1" fill="#e27269"/>
<rect x="12" y="7" width="1" height="1" fill="#96211b"/>
<rect x="13" y="7" width="1" height="1" fill="#470a06"/>
<rect x="5" y="8" width="1" height="1" fill="#ad332e"/>
<rect x="6" y="8" width="1" height="1" fill="#ad332e"/>
<rect x="7" y="8" width="1" height="1" fill="#e2625a"/>
<rect x="8" y="8" width="1" height="1" fill="#e88a82"/>
<rect x="9" y="8" width="1" height="1" fill="#e27269"/>
<rect x="10" y="8" width="1" height="1" fill="#dd3830"/>
<rect x="11" y="8" width="1" height="1" fill="#e27269"/>
<rect x="12" y="8" width="1" height="1" fill="#96211b"/>
<rect x="4" y="9" width="1" height="1" fill="#ad332e"/>
<rect x="5" y="9" width="1" height="1" fill="#e88a82"/>
<rect x="6" y="9" width="1" height="1" fill="#e88a82"/>
<rect x="7" y="9" width="1" height="1" fill="#e2625a"/>
<rect x="8" y="9" width="1" height="1" fill="#dd3830"/>
<rect x="9" y="9" width="1" height="1" fill="#e88a82"/>
<rect x="10" y="9" width="1" height="1" fill="#e2625a"/>
<rect x="11" y="9" width="1" height="1" fill="#e2625a"/>
<rect x="12" y="9" width="1" height="1" fill="#96211b"/>
<rect x="3" y="10" width="1" height="1" fill="#ad332e"/>
<rect x="4" y="10" width="1" height="1" fill="#e88a82"/>
<rect x="5" y="10" width="1" height="1" fill="#e2625a"/>
<rect x="6" y="10" width="1" height="1" fill="#d12e26"/>
<rect x="7" y="10" width="1" height="1" fill="#d12e26"/>
<rect x="8" y="10" width="1" height="1" fill="#d12e26"/>
<rect x="9" y="10" width="1" height="1" fill="#e2625a"/>
<rect x="10" y="10" width="1" height="1" fill="#e88a82"/>
<rect x="11" y="10" width="1" height="1" fill="#bc2922"/>
<rect x="12" y="10" width="1" height="1" fill="#470a06"/>
<rect x="2" y="11" width="1" height="1" fill="#ad332e"/>
<rect x="3" y="11" width="1" height="1" fill="#e88a82"/>
<rect x="4" y="11" width="1" height="1" fill="#dd3830"/>
<rect x="5" y="11" width="1" height="1" fill="#d12e26"/>
<rect x="6" y="11" width="1" height="1" fill="#d12e26"/>
<rect x="7" y="11" width="1" height="1" fill="#d12e26"/>
<rect x="8" y="11" width="1" height="1" fill="#d12e26"/>
<rect x="9" y="11" width="1" height="1" fill="#dd3830"/>
<rect x="10" y="11" width="1" height="1" fill="#e88a82"/>
<rect x="11" y="11" width="1" height="1" fill="#96211b"/>
<rect x="12" y="11" width="1" height="1" fill="#470a06"/>
<rect x="2" y="12" width="1" height="1" fill="#ad332e"/>
<rect x="3" y="12" width="1" height="1" fill="#e88a82"/>
<rect x="4" y="12" width="1" height="1" fill="#e2625a"/>
<rect x="5" y="12" width="1" height="1" fill="#dd3830"/>
<rect x="6" y="12" width="1" height="1" fill="#d12e26"/>
<rect x="7" y="12" width="1" height="1" fill="#d12e26"/>
<rect x="8" y="12" width="1" height="1" fill="#dd3830"/>
<rect x="9" y="12" width="1" height="1" fill="#e2625a"/>
<rect x="10" y="12" width="1" height="1" fill="#d12e26"/>
<rect x="11" y="12" width="1" height="1" fill="#96211b"/>
<rect x="2" y="13" width="1" height="1" fill="#96211b"/>
<rect x="3" y="13" width="1" height="1" fill="#bc2922"/>
<rect x="4" y="13" width="1" height="1" fill="#e2625a"/>
<rect x="5" y="13" width="1" height="1" fill="#e27269"/>
<rect x="6" y="13" width="1" height="1" fill="#e88a82"/>
<rect x="7" y="13" width="1" height="1" fill="#e88a82"/>
<rect x="8" y="13" width="1" height="1" fill="#e27269"/>
<rect x="9" y="13" width="1" height="1" fill="#bc2922"/>
<rect x="10" y="13" width="1" height="1" fill="#96211b"/>
<rect x="11" y="13" width="1" height="1" fill="#470a06"/>
<rect x="2" y="14" width="1" height="1" fill="#470a06"/>
<rect x="3" y="14" width="1" height="1" fill="#96211b"/>
<rect x="4" y="14" width="1" height="1" fill="#96211b"/>
<rect x="5" y="14" width="1" height="1" fill="#96211b"/>
<rect x="6" y="14" width="1" height="1" fill="#96211b"/>
<rect x="7" y="14" width="1" height="1" fill="#96211b"/>
<rect x="8" y="14" width="1" height="1" fill="#96211b"/>
<rect x="9" y="14" width="1" height="1" fill="#470a06"/>
<rect x="10" y="14" width="1" height="1" fill="#470a06"/>
<rect x="3" y="15" width="1" height="1" fill="#470a06"/>
<rect x="4" y="15" width="1" height="1" fill="#470a06"/>
<rect x="5" y="15" width="1" height="1" fill="#470a06"/>
<rect x="6" y="15" width="1" height="1" fill="#470a06"/>
<rect x="7" y="15" width="1" height="1" fill="#470a06"/>
<rect x="8" y="15" width="1" height="1" fill="#470a06"/>
</svg>