<svg xmlns="http://www.w3.org/2000/svg" width="16" height="16" viewBox="0 0 16 16" shape-rendering="crispEdges">
<rect x="5" y="3" width="1" height="1" fill="#bfb29c" fill-opacity="0.160784"/>
<rect x="6" y="3" width="1" height="1" fill="#c1b39d" fill-opacity="0.92549"/>
<rect x="7" y="3" width="1" height="1" fill="#c1b49e"/>
<rect x="8" y="3" width="1" height="1" fill="#c1b49e"/>
<rect x="9" y="3" width="1" height="1" fill="#c1b39d" fill-opacity="0.92549"/>
<rect x="10" y="3" width="1" height="1" fill="#bfb29c" fill-opacity="0.160784"/>
<rect x="5" y="4" width="1" height="1" fill="#c1b39d" fill-opacity="0.92549"/>
<rect x="6" y="4" width="1" height="1" fill="#e3d3b9" fill-opacity="0.992157"/>
<rect x="7" y="4" width="1" height="1" fill="#edddc3"/>
<rect x="8" y="4" width="1" height="1" fill="#edddc3"/>
<rect x="9" y="4" width="1" height="1" fill="#e3d3b9" fill-opacity="0.992157"/>
<rect x="10" y="4" width="1" height="1" fill="#c1b39d" fill-opacity="0.92549"/>
<rect x="3" y="5" width="1" height="1" fill="#bdb09a" fill-opacity="0.0823529"/>
<rect x="4" y="5" width="1" height="1" fill="#bdb09a" fill-opacity="0.917647"/>
<rect x="5" y="5" width="1" height="1" fill="#edddc3"/>
<rect x="6" y="5" width="1" height="1" fill="#fcedd5"/>
<rect x="7" y="5" width="1" height="1" fill="#f1e0c6"/>
<rect x="8" y="5" width="1" height="1" fill="#ebdac0"/>
<rect x="9" y="5" width="1" height="1" fill="#d5c6ae"/>
<rect x="10" y="5" width="1" height="1" fill="#d7c8af"/>
<rect x="11" y="5" width="1" height="1" fill="#beb19a" fill-opacity="0.917647"/>
<rect x="12" y="5" width="1" height="1" fill="#beb19a" fill-opacity="0.0823529"/>
<rect x="3" y="6" width="1" height="1" fill="#bdb09a" fill-opacity="0.0823529"/>
<rect x="4" y="6" width="1" height="1" fill="#bdb09a" fill-opacity="0.917647"/>
<rect x="5" y="6" width="1" height="1" fill="#fbecd3"/>
<rect x="6" y="6" width="1" height="1" fill="#feefd7"/>
<rect x="7" y="6" width="1" height="1" fill="#f1e0c6"/>
<rect x="8" y="6" width="1" height="1" fill="#ebdac0"/>
<rect x="9" y="6" width="1" height="1" fill="#d7c7af"/>
<rect x="10" y="6" width="1" height="1" fill="#e5d5bb"/>
<rect x="11" y="6" width="1" height="1" fill="#c5b59c" fill-opacity="0.917647"/>
<rect x="12" y="6" width="1" height="1" fill="#c5b59c" fill-opacity="0.0823529"/>
<rect x="3" y="7" width="1" height="1" fill="#c1b49d"/>
<rect x="4" y="7" width="1" height="1" fill="#e6d6bc"/>
<rect x="5" y="7" width="1" height="1" fill="#fbecd4"/>
<rect x="6" y="7" width="1" height="1" fill="#f2e1c8"/>
<rect x="7" y="7" width="1" height="1" fill="#f1e1c7"/>
<rect x="8" y="7" width="1" height="1" fill="#f1e1c7"/>
<rect x="9" y="7" width="1" height="1" fill="#f1e0c6"/>
<rect x="10" y="7" width="1" height="1" fill="#ebdac0"/>
<rect x="11" y="7" width="1" height="1" fill="#d6c6ae"/>
<rect x="12" y="7" width="1" height="1" fill="#c7b79e"/>
<rect x="3" y="8" width="1" height="1" fill="#c1b49d"/>
<rect x="4" y="8" width="1" height="1" fill="#e6d6bc"/>
<rect x="5" y="8" width="1" height="1" fill="#edddc3"/>
<rect x="6" y="8" width="1" height="1" fill="#ecdbc1"/>
<rect x="7" y="8" width="1" height="1" fill="#f1e1c7"/>
<rect x="8" y="8" width="1" height="1" fill="#f1e1c7"/>
<rect x="9" y="8" width="1" height="1" fill="#f1e0c6"/>
<rect x="10" y="8" width="1" height="1" fill="#ebdac0"/>
<rect x="11" y="8" width="1" height="1" fill="#e4d3ba"/>
<rect x="12" y="8" width="1" height="1" fill="#c9b99f"/>
<rect x="3" y="9" width="1" height="1" fill="#c1b49e"/>
<rect x="4" y="9" width="1" height="1" fill="#ecdcc2"/>
<rect x="5" y="9" width="1" height="1" fill="#ead9bf"/>
<rect x="6" y="9" width="1" height="1" fill="#ead9bf"/>
<rect x="7" y="9" width="1" height="1" fill="#f1e1c7"/>
<rect x="8" y="9" width="1" height="1" fill="#f1e1c7"/>
<rect x="9" y="9" width="1" height="1" fill="#ead9bf"/>
<rect x="10" y="9" width="1" height="1" fill="#dacbb2"/>
<rect x="11" y="9" width="1" height="1" fill="#e7d6bc"/>
<rect x="12" y="9" width="1" height="1" fill="#c9b99f"/>
<rect x="3" y="10" width="1" height="1" fill="#c1b49e"/>
<rect x="4" y="10" width="1" height="1" fill="#edddc3"/>
<rect x="5" y="10" width="1" height="1" fill="#f0e0c6"/>
<rect x="6" y="10" width="1" height="1" fill="#f0e0c6"/>
<rect x="7" y="10" width="1" height="1" fill="#f1e1c7"/>
<rect x="8" y="10" width="1" height="1" fill="#f1e1c7"/>
<rect x="9" y="10" width="1" height="1" fill="#d8c9b1"/>
<rect x="10" y="10" width="1" height="1" fill="#d5c6ae"/>
<rect x="11" y="10" width="1" height="1" fill="#e7d6bc"/>
<rect x="12" y="10" width="1" height="1" fill="#c9b99f"/>
<rect x="3" y="11" width="1" height="1" fill="#c1b49d"/>
<rect x="4" y="11" width="1" height="1" fill="#e7d7bd"/>
<rect x="5" y="11" width="1" height="1" fill="#f1e1c7"/>
<rect x="6" y="11" width="1" height="1" fill="#f1e1c7"/>
<rect x="7" y="11" width="1" height="1" fill="#f1e0c6"/>
<rect x="8" y="11" width="1" height="1" fill="#ecdbc1"/>
<rect x="9" y="11" width="1" height="1" fill="#e7d6bc"/>
<rect x="10" y="11" width="1" height="1" fill="#e7d6bc"/>
<rect x="11" y="11" width="1" height="1" fill="#d7c8af"/>
<rect x="12" y="11" width="1" height="1" fill="#c8b89e"/>
<rect x="3" y="12" width="1" height="1" fill="#c2b49d" fill-opacity="0.235294"/>
<rect x="4" y="12" width="1" height="1" fill="#ccbca2" fill-opacity="0.929412"/>
<rect x="5" y="12" width="1" height="1" fill="#dbccb4"/>
<rect x="6" y="12" width="1" height="1" fill="#ead9bf"/>
<rect x="7" y="12" width="1" height="1" fill="#ebdac0"/>
<rect x="8" y="12" width="1" height="1" fill="#ead9bf"/>
<rect x="9" y="12" width="1" height="1" fill="#e9d8be"/>
<rect x="10" y="12" width="1" height="1" fill="#dacbb2"/>
<rect x="11" y="12" width="1" height="1" fill="#c9b99f" fill-opacity="0.929412"/>
<rect x="12" y="12" width="1" height="1" fill="#c7b79d" fill-opacity="0.235294"/>
<rect x="3" y="13" width="1" height="1" fill="#c6b69c" fill-opacity="0.0156863"/>
<rect x="4" y="13" width="1" height="1" fill="#c6b69c" fill-opacity="0.152941"/>
<rect x="5" y="13" width="1" height="1" fill="#c9b99f"/>
<rect x="6" y="13" width="1" height="1" fill="#ccbca2"/>
<rect x="7" y="13" width="1" height="1" fill="#ccbca2"/>
<rect x="8" y="13" width="1" height="1" fill="#ccbca2"/>
<rect x="9" y="13" width="1" height="1" fill="#ccbca2"/>
<rect x="10" y="13" width="1" height="1" fill="#c9b99f"/>
<rect x="11" y="13" width="1" height="1" fill="#c6b69c" fill-opacity="0.152941"/>
<rect x="12" y="13" width="1" height="1" fill="#c6b69c" fill-opacity="0.0156863"/>
</svg>