<svg xmlns="http://www.w3.org/2000/svg" width="18" height="18" viewBox="0 0 18 18" shape-rendering="crispEdges">
<g fill="#3a6f1a">
<rect x="10" y="1" width="1" height="1"/>
<rect x="11" y="1" width="1" height="1"/>
<rect x="12" y="1" width="1" height="1"/>
<rect x="13" y="1" width="1" height="1"/>
<rect x="9" y="2" width="1" height="1"/>
<rect x="8" y="3" width="1" height="1"/>
<rect x="8" y="4" width="1" height="1"/>
<rect x="8" y="5" width="1" height="1"/>
<rect x="8" y="6" width="1" height="1"/>
<rect x="3" y="8" width="1" height="1"/>
<rect x="4" y="8" width="1" height="1"/>
<rect x="5" y="8" width="1" height="1"/>
<rect x="2" y="9" width="1" height="1"/>
<rect x="6" y="9" width="1" height="1"/>
<rect x="2" y="10" width="1" height="1"/>
<rect x="2" y="11" width="1" height="1"/>
<rect x="10" y="13" width="1" height="1"/>
<rect x="11" y="13" width="1" height="1"/>
<rect x="9" y="14" width="1" height="1"/>
<rect x="12" y="14" width="1" height="1"/>
<rect x="9" y="15" width="1" height="1"/>
</g>
<g fill="#364b15">
<rect x="14" y="1" width="1" height="1"/>
<rect x="15" y="2" width="1" height="1"/>
<rect x="16" y="3" width="1" height="1"/>
<rect x="16" y="4" width="1" height="1"/>
<rect x="16" y="5" width="1" height="1"/>
<rect x="16" y="6" width="1" height="1"/>
<rect x="9" y="7" width="1" height="1"/>
<rect x="15" y="7" width="1" height="1"/>
<rect x="9" y="8" width="1" height="1"/>
<rect x="15" y="8" width="1" height="1"/>
<rect x="10" y="9" width="1" height="1"/>
<rect x="11" y="9" width="1" height="1"/>
<rect x="12" y="9" width="1" height="1"/>
<rect x="13" y="9" width="1" height="1"/>
<rect x="14" y="9" width="1" height="1"/>
<rect x="6" y="10" width="1" height="1"/>
<rect x="6" y="11" width="1" height="1"/>
<rect x="3" y="12" width="1" height="1"/>
<rect x="4" y="12" width="1" height="1"/>
<rect x="5" y="12" width="1" height="1"/>
<rect x="12" y="15" width="1" height="1"/>
<rect x="10" y="16" width="1" height="1"/>
<rect x="11" y="16" width="1" height="1"/>
</g>
<g fill="#64a63a">
<rect x="10" y="2" width="1" height="1"/>
<rect x="14" y="2" width="1" height="1"/>
<rect x="9" y="3" width="1" height="1"/>
<rect x="11" y="3" width="1" height="1"/>
<rect x="13" y="3" width="1" height="1"/>
<rect x="15" y="3" width="1" height="1"/>
<rect x="11" y="5" width="1" height="1"/>
<rect x="13" y="5" width="1" height="1"/>
<rect x="9" y="6" width="1" height="1"/>
<rect x="15" y="6" width="1" height="1"/>
<rect x="10" y="7" width="1" height="1"/>
<rect x="14" y="7" width="1" height="1"/>
<rect x="11" y="8" width="1" height="1"/>
<rect x="13" y="8" width="1" height="1"/>
<rect x="5" y="10" width="1" height="1"/>
<rect x="4" y="11" width="1" height="1"/>
</g>
<g fill="#76db4c">
<rect x="11" y="2" width="1" height="1"/>
<rect x="12" y="2" width="1" height="1"/>
<rect x="13" y="2" width="1" height="1"/>
<rect x="10" y="3" width="1" height="1"/>
<rect x="12" y="3" width="1" height="1"/>
<rect x="14" y="3" width="1" height="1"/>
<rect x="9" y="4" width="1" height="1"/>
<rect x="12" y="4" width="1" height="1"/>
<rect x="15" y="4" width="1" height="1"/>
<rect x="9" y="5" width="1" height="1"/>
<rect x="12" y="5" width="1" height="1"/>
<rect x="15" y="5" width="1" height="1"/>
<rect x="10" y="6" width="1" height="1"/>
<rect x="11" y="6" width="1" height="1"/>
<rect x="13" y="6" width="1" height="1"/>
<rect x="14" y="6" width="1" height="1"/>
<rect x="11" y="7" width="1" height="1"/>
<rect x="12" y="7" width="1" height="1"/>
<rect x="13" y="7" width="1" height="1"/>
<rect x="4" y="9" width="1" height="1"/>
<rect x="5" y="9" width="1" height="1"/>
<rect x="3" y="10" width="1" height="1"/>
<rect x="4" y="10" width="1" height="1"/>
<rect x="11" y="14" width="1" height="1"/>
<rect x="10" y="15" width="1" height="1"/>
</g>
<g fill="#4f8c29">
<rect x="10" y="4" width="1" height="1"/>
<rect x="11" y="4" width="1" height="1"/>
<rect x="13" y="4" width="1" height="1"/>
<rect x="14" y="4" width="1" height="1"/>
<rect x="10" y="5" width="1" height="1"/>
<rect x="14" y="5" width="1" height="1"/>
<rect x="12" y="6" width="1" height="1"/>
<rect x="10" y="8" width="1" height="1"/>
<rect x="12" y="8" width="1" height="1"/>
<rect x="14" y="8" width="1" height="1"/>
<rect x="3" y="11" width="1" height="1"/>
<rect x="5" y="11" width="1" height="1"/>
<rect x="11" y="15" width="1" height="1"/>
</g>
<g fill="#bfe970">
<rect x="3" y="9" width="1" height="1"/>
<rect x="10" y="14" width="1" height="1"/>
</g>
</svg>